<?xml version="1.0" encoding="UTF-8"?>
<svg xmlns="http://www.w3.org/2000/svg" xmlns:xlink="http://www.w3.org/1999/xlink" width="25pt" height="23pt" viewBox="0 0 25 23" version="1.1">
<g id="surface1">
<path style=" stroke:none;fill-rule:nonzero;fill:rgb(80%,21.568627%,19.215686%);fill-opacity:1;" d="M 22.699219 0 L 2.300781 0 C 1.03125 0 0 0.300781 0 1.816406 L 0 21.488281 C 0 22.65625 1.03125 23 2.300781 23 L 22.699219 23 C 23.96875 23 25 22.65625 25 21.488281 L 25 1.816406 C 25 0.300781 23.96875 0 22.699219 0 Z M 22.699219 0 "/>
<path style=" stroke:none;fill-rule:nonzero;fill:rgb(100%,100%,100%);fill-opacity:1;" d="M 16.816406 1.664062 L 18.601562 1.664062 L 18.601562 5.902344 L 22.78125 5.902344 L 22.78125 7.679688 L 18.601562 7.679688 L 18.601562 11.953125 L 16.816406 11.953125 L 16.816406 7.679688 L 12.648438 7.679688 L 12.648438 5.902344 L 16.816406 5.902344 Z M 16.816406 1.664062 "/>
<path style=" stroke:none;fill-rule:nonzero;fill:rgb(100%,100%,100%);fill-opacity:1;" d="M 9.613281 16.207031 L 8.429688 15.269531 C 8.066406 14.96875 7.574219 14.566406 7.574219 13.828125 C 7.574219 13.09375 8.066406 12.617188 8.496094 12.183594 C 9.875 11.082031 11.160156 9.90625 11.160156 7.425781 C 11.167969 5.769531 10.429688 4.203125 9.152344 3.175781 L 11.164062 3.175781 L 13.011719 1.664062 L 6.066406 1.664062 C 4.34375 1.695312 2.285156 1.960938 0.414062 3.535156 C 0.324219 3.613281 0.230469 3.703125 0.148438 3.78125 L 0.148438 11.953125 C 1.160156 12.820312 2.441406 13.292969 3.765625 13.292969 C 4.09375 13.292969 4.453125 13.257812 4.816406 13.226562 C 4.609375 13.632812 4.5 14.078125 4.488281 14.535156 C 4.488281 15.574219 5.011719 16.207031 5.472656 16.8125 C 4.21875 16.898438 1.636719 16.683594 0.148438 17.894531 L 0.148438 19.824219 C 0.828125 18.882812 1.910156 18.464844 2.386719 18.289062 C 3.507812 17.957031 4.667969 17.773438 5.835938 17.753906 C 6.085938 17.746094 6.339844 17.757812 6.589844 17.789062 C 9.089844 19.601562 10.878906 20.53125 10.894531 22.246094 C 10.894531 22.453125 10.847656 22.660156 10.757812 22.851562 L 12.683594 22.851562 C 12.878906 22.324219 12.96875 21.765625 12.945312 21.203125 C 12.945312 18.886719 11.058594 17.453125 9.613281 16.207031 Z M 5.421875 11.953125 C 2.59375 11.953125 1.433594 8.632812 1.433594 6.386719 C 1.433594 5.511719 1.519531 4.609375 2.078125 3.902344 C 2.652344 3.214844 3.492188 2.808594 4.378906 2.796875 C 7.105469 2.796875 8.480469 6.550781 8.480469 8.96875 C 8.433594 9.757812 8.132812 10.511719 7.625 11.117188 C 7.082031 11.742188 6.242188 11.953125 5.421875 11.953125 Z M 5.421875 11.953125 "/>
</g>
</svg>
